<?xml version="1.0" standalone="no"?><!DOCTYPE svg PUBLIC "-//W3C//DTD SVG 1.1//EN" "http://www.w3.org/Graphics/SVG/1.1/DTD/svg11.dtd"><svg t="1618281661194" class="icon" viewBox="0 0 1024 1024" version="1.1" xmlns="http://www.w3.org/2000/svg" p-id="2177" xmlns:xlink="http://www.w3.org/1999/xlink" width="200" height="200"><defs><style type="text/css"></style></defs><path d="M832 57.6c-19.2 0-32 12.8-32 32s12.8 32 32 32c57.6 0 102.4 44.8 102.4 102.4l0 64L89.6 288l0-64c0-57.6 44.8-102.4 102.4-102.4 19.2 0 32-12.8 32-32S211.2 57.6 192 57.6c-89.6 0-166.4 70.4-166.4 166.4l0 633.6C32 953.6 102.4 1024 192 1024L832 1024c89.6 0 166.4-70.4 166.4-166.4L998.4 224C992 134.4 921.6 57.6 832 57.6zM832 966.4 192 966.4c-57.6 0-102.4-44.8-102.4-102.4l0-512 844.8 0 0 512C934.4 915.2 889.6 966.4 832 966.4z" p-id="2178" fill="#000000"></path><path d="M300.8 166.4c19.2 0 32-12.8 32-32L332.8 32C332.8 12.8 320 0 300.8 0 281.6 0 268.8 12.8 268.8 32l0 102.4C268.8 153.6 281.6 166.4 300.8 166.4z" p-id="2179" fill="#000000"></path><path d="M499.2 166.4c19.2 0 32-12.8 32-32L531.2 32C524.8 12.8 512 0 499.2 0 480 0 467.2 12.8 467.2 32l0 102.4C467.2 153.6 480 166.4 499.2 166.4z" p-id="2180" fill="#000000"></path><path d="M691.2 166.4c19.2 0 32-12.8 32-32L723.2 32c0-19.2-12.8-32-32-32s-32 12.8-32 32l0 102.4C665.6 153.6 678.4 166.4 691.2 166.4z" p-id="2181" fill="#000000"></path><path d="M390.4 480c0 12.8 12.8 25.6 25.6 25.6l166.4 0C569.6 537.6 550.4 569.6 537.6 595.2 524.8 627.2 512 652.8 499.2 684.8c-12.8 32-19.2 57.6-32 89.6-6.4 12.8-6.4 32-12.8 44.8-6.4 19.2 12.8 38.4 32 38.4 19.2 0 32-12.8 32-25.6 6.4-25.6 12.8-44.8 19.2-70.4 6.4-32 19.2-64 32-89.6C582.4 640 595.2 608 614.4 576c12.8-32 32-64 44.8-89.6L659.2 454.4 422.4 454.4C403.2 454.4 390.4 467.2 390.4 480z" p-id="2182" fill="#000000"></path></svg>