<?xml version="1.0" standalone="no"?><!DOCTYPE svg PUBLIC "-//W3C//DTD SVG 1.1//EN"
        "http://www.w3.org/Graphics/SVG/1.1/DTD/svg11.dtd"><svg viewBox="0 0 1024 1024" version="1.1" xmlns="http://www.w3.org/2000/svg" xmlns:xlink="http://www.w3.org/1999/xlink"><path transform="scale(1, -1) translate(0, -1024)" d="M368.896 704H224a32 32 0 0 1-32-32v-137.888a32 32 0 0 1 64 0V640h112.896a32 32 0 0 1 0 64zM784.864 704H640a32 32 0 1 1 0-64h112.864v-105.888a32 32 0 1 1 64 0V672a32 32 0 0 1-32 32zM368.896 118.08H256V224a32 32 0 1 1-64 0v-137.92a32 32 0 0 1 32-32h144.896a32 32 0 1 1 0 64zM784.864 256a32 32 0 0 1-32-32v-105.92H640a32 32 0 1 1 0-64h144.864a32 32 0 0 1 32 32V224a32 32 0 0 1-32 32zM912 848h-800c-35.296 0-64-28.704-64-64v-800c0-35.296 28.704-64 64-64h800c35.296 0 64 28.704 64 64v800c0 35.296-28.704 64-64 64z m-800-864v800h800l0.064-800H112z"/></svg>