<?xml version="1.0" standalone="no"?><!DOCTYPE svg PUBLIC "-//W3C//DTD SVG 1.1//EN"
        "http://www.w3.org/Graphics/SVG/1.1/DTD/svg11.dtd"><svg viewBox="0 0 1024 1024" version="1.1" xmlns="http://www.w3.org/2000/svg" xmlns:xlink="http://www.w3.org/1999/xlink"><path transform="scale(1, -1) translate(0, -1024)" d="M128 725.333333h85.333333v-256h170.666667V725.333333h85.333333v-597.333333H384v256H213.333333v-256H128V725.333333m512 0h170.666667a85.333333 85.333333 0 0 0 85.333333-85.333333v-426.666667a85.333333 85.333333 0 0 0-85.333333-85.333333h-170.666667a85.333333 85.333333 0 0 0-85.333333 85.333333v42.666667h85.333333v-42.666667h170.666667v170.666667h-170.666667v85.333333h170.666667V640h-170.666667v-42.666667h-85.333333V640a85.333333 85.333333 0 0 0 85.333333 85.333333z"/></svg>