<?xml version="1.0" standalone="no"?><!DOCTYPE svg PUBLIC "-//W3C//DTD SVG 1.1//EN"
        "http://www.w3.org/Graphics/SVG/1.1/DTD/svg11.dtd"><svg viewBox="0 0 1024 1024" version="1.1" xmlns="http://www.w3.org/2000/svg" xmlns:xlink="http://www.w3.org/1999/xlink"><path transform="scale(1, -1) translate(0, -1024)" d="M128 725.333333L213.333333 725.333333 213.333333 469.333333 384 469.333333 384 725.333333 469.333333 725.333333 469.333333 128 384 128 384 384 213.333333 384 213.333333 128 128 128 128 725.333333M640 725.333333L853.333333 725.333333 853.333333 640 640 640 640 469.333333 725.333333 469.333333C819.626667 469.333333 896 392.96 896 298.66666699999996 896 204.373333 819.626667 128 725.333333 128L640 128C593.066667 128 554.666667 166.39999999999998 554.666667 213.33333300000004L554.666667 256 640 256 640 213.33333300000004 725.333333 213.33333300000004C772.266667 213.33333300000004 810.666667 251.73333300000002 810.666667 298.66666699999996 810.666667 345.6 772.266667 384 725.333333 384L640 384C593.066667 384 554.666667 422.4 554.666667 469.333333L554.666667 640C554.666667 686.933333 593.066667 725.333333 640 725.333333Z"/></svg>