<?xml version="1.0" standalone="no"?><!DOCTYPE svg PUBLIC "-//W3C//DTD SVG 1.1//EN"
        "http://www.w3.org/Graphics/SVG/1.1/DTD/svg11.dtd"><svg viewBox="0 0 1024 1024" version="1.1" xmlns="http://www.w3.org/2000/svg" xmlns:xlink="http://www.w3.org/1999/xlink"><path transform="scale(1, -1) translate(0, -1024)" d="M128 725.333333L213.333333 725.333333 213.333333 469.333333 384 469.333333 384 725.333333 469.333333 725.333333 469.333333 128 384 128 384 384 213.333333 384 213.333333 128 128 128 128 725.333333M768 128L768 341.33333300000004 554.666667 341.33333300000004 554.666667 426.666667 768 725.333333 853.333333 725.333333 853.333333 426.666667 896 426.666667 896 341.33333300000004 853.333333 341.33333300000004 853.333333 128 768 128M768 426.666667L768 579.413333 659.2 426.666667 768 426.666667Z"/></svg>