<?xml version="1.0" standalone="no"?><!DOCTYPE svg PUBLIC "-//W3C//DTD SVG 1.1//EN"
        "http://www.w3.org/Graphics/SVG/1.1/DTD/svg11.dtd"><svg viewBox="0 0 1024 1024" version="1.1" xmlns="http://www.w3.org/2000/svg" xmlns:xlink="http://www.w3.org/1999/xlink"><path transform="scale(1, -1) translate(0, -1024)" d="M128 725.333333L213.333333 725.333333 213.333333 469.333333 384 469.333333 384 725.333333 469.333333 725.333333 469.333333 128 384 128 384 384 213.333333 384 213.333333 128 128 128 128 725.333333M640 725.333333L810.666667 725.333333C857.6 725.333333 896 686.933333 896 640L896 597.333333 810.666667 597.333333 810.666667 640 640 640 640 469.333333 810.666667 469.333333C857.6 469.333333 896 430.933333 896 384L896 213.33333300000004C896 166.39999999999998 857.6 128 810.666667 128L640 128C593.066667 128 554.666667 166.39999999999998 554.666667 213.33333300000004L554.666667 640C554.666667 686.933333 593.066667 725.333333 640 725.333333M640 384L640 213.33333300000004 810.666667 213.33333300000004 810.666667 384 640 384Z"/></svg>