<?xml version="1.0" standalone="no"?><!DOCTYPE svg PUBLIC "-//W3C//DTD SVG 1.1//EN"
        "http://www.w3.org/Graphics/SVG/1.1/DTD/svg11.dtd"><svg viewBox="0 0 1024 1024" version="1.1" xmlns="http://www.w3.org/2000/svg" xmlns:xlink="http://www.w3.org/1999/xlink"><path transform="scale(1, -1) translate(0, -1024)" d="M201.142857 420.571429q0-7.972571-5.12-13.165714l-164.571429-164.571429q-5.12-5.12-13.165714-5.12-7.460571 0-12.873143 5.412571t-5.412571 12.873143l0 329.142857q0 7.460571 5.412571 12.873143t12.873143 5.412571q7.972571 0 13.165714-5.12l164.571429-164.571429q5.12-5.12 5.12-13.165714zM1024 146.285714l0-109.714286q0-7.460571-5.412571-12.873143t-12.873143-5.412571l-987.428571 0q-7.460571 0-12.873143 5.412571t-5.412571 12.873143l0 109.714286q0 7.460571 5.412571 12.873143t12.873143 5.412571l987.428571 0q7.460571 0 12.873143-5.412571t5.412571-12.873143zM1024 365.714286l0-109.714286q0-7.460571-5.412571-12.873143t-12.873143-5.412571l-621.714286 0q-7.460571 0-12.873143 5.412571t-5.412571 12.873143l0 109.714286q0 7.460571 5.412571 12.873143t12.873143 5.412571l621.714286 0q7.460571 0 12.873143-5.412571t5.412571-12.873143zM1024 585.142857l0-109.714286q0-7.460571-5.412571-12.873143t-12.873143-5.412571l-621.714286 0q-7.460571 0-12.873143 5.412571t-5.412571 12.873143l0 109.714286q0 7.460571 5.412571 12.873143t12.873143 5.412571l621.714286 0q7.460571 0 12.873143-5.412571t5.412571-12.873143zM1024 804.571429l0-109.714286q0-7.460571-5.412571-12.873143t-12.873143-5.412571l-987.428571 0q-7.460571 0-12.873143 5.412571t-5.412571 12.873143l0 109.714286q0 7.460571 5.412571 12.873143t12.873143 5.412571l987.428571 0q7.460571 0 12.873143-5.412571t5.412571-12.873143z"/></svg>