<?xml version="1.0" standalone="no"?><!DOCTYPE svg PUBLIC "-//W3C//DTD SVG 1.1//EN"
        "http://www.w3.org/Graphics/SVG/1.1/DTD/svg11.dtd"><svg viewBox="0 0 1024 1024" version="1.1" xmlns="http://www.w3.org/2000/svg" xmlns:xlink="http://www.w3.org/1999/xlink"><path transform="scale(1, -1) translate(0, -1024)" d="M896 269.408a16 16 0 0 1-7.68 13.664l-172.448 105.088a16 16 0 0 1-20.704-3.52l-76-92.608-1.024-1.152a16 16 0 0 0-22.624-0.032l-252.832 252.064a16.032 16.032 0 0 1-22.08 0.512l-187.36-170.656a15.936 15.936 0 0 1-5.248-11.84V96h768v173.408zM800 576m-64 0a64 64 0 1 1 128 0 64 64 0 1 1-128 0ZM32 768v-768h960V768H32z m896-704H96V704h832v-640z"/></svg>