<?xml version="1.0" standalone="no"?><!DOCTYPE svg PUBLIC "-//W3C//DTD SVG 1.1//EN"
        "http://www.w3.org/Graphics/SVG/1.1/DTD/svg11.dtd"><svg viewBox="0 0 1024 1024" version="1.1" xmlns="http://www.w3.org/2000/svg" xmlns:xlink="http://www.w3.org/1999/xlink"><path transform="scale(1, -1) translate(0, -1024)" d="M648 736H104c-4.4 0-8-3.6-8-8v-128c0-4.4 3.6-8 8-8h56c4.4 0 8 3.6 8 8v64h168v-560h-92c-4.4 0-8-3.6-8-8v-56c0-4.4 3.6-8 8-8h264c4.4 0 8 3.6 8 8v56c0 4.4-3.6 8-8 8h-92V664h168v-64c0-4.4 3.6-8 8-8h56c4.4 0 8 3.6 8 8V728c0 4.4-3.6 8-8 8zM920.8 190H856V578h64.8c6 0 9.4 7 5.7 11.7L825.7 717.3c-2.9 3.7-8.5 3.7-11.3 0L713.6 589.7c-3.7-4.7-0.4-11.7 5.7-11.7H784v-388h-64.8c-6 0-9.4-7-5.7-11.7l100.8-127.5c2.9-3.7 8.5-3.7 11.3 0l100.8 127.5c3.8 4.7 0.4 11.7-5.6 11.7z"/></svg>