<?xml version="1.0" standalone="no"?><!DOCTYPE svg PUBLIC "-//W3C//DTD SVG 1.1//EN"
        "http://www.w3.org/Graphics/SVG/1.1/DTD/svg11.dtd"><svg viewBox="0 0 1024 1024" version="1.1" xmlns="http://www.w3.org/2000/svg" xmlns:xlink="http://www.w3.org/1999/xlink"><path transform="scale(1, -1) translate(0, -1024)" d="M667.548 463.746c-70.135 0.01-499.009-0.12-569.146 0.095-19.487 0.055-32.44 9.535-37.515 26.015-4.96 16.125-0.128 33.43 14.287 41.985 7.767 4.615 17.917 7.285 27.005 7.315 137.62 0.445 633.973 0.43 771.588 0.205 22.575-0.04 35.745-9.035 41.225-25.865 5.365-16.46 1.25-33.125-13.44-42.14-8.005-4.91-18.805-7.22-28.375-7.305-68.539-0.595-137.084-0.32-205.629-0.305z m-0.24 383.534c69.615 0 203.919 0.207 273.539-0.1 29.92-0.132 48.3-25.262 38.46-51.455-5.86-15.582-19.48-24.447-38.985-24.515-47.3-0.178-159.28-0.07-206.574-0.07-91.41 0.002-541.559-0.128-632.971 0.09-29.54 0.07-47.992 23.262-39.92 49.195 5.415 17.405 19.117 26.77 40.447 26.812 69.086 0.128 496.914 0.048 566.004 0.043z m-19.25-229.799c-63.815 0-486.369-0.17-550.184 0.11-18.527 0.08-31.1 9.375-36.627 25.255-5.32 15.285-1.575 32.38 11.915 41.33 7.93 5.26 18.56 9 27.992 9.045 125.505 0.58 609.753 0.52 735.263 0.28 25.305-0.05 42.025-15.955 42.08-38.275 0.045-22.255-16.695-37.645-42.18-37.74-62.75-0.23-125.51-0.075-188.26-0.075l0.001 0.07z m-0.13-232.495c63.81-0.01 102.98 0.15 166.795-0.115 18.495-0.075 31.585-9.545 36.87-24.95 5.24-15.305 1.475-32.49-11.73-41.51-7.425-5.07-17.48-8.795-26.375-8.835-126.565-0.555-587.229-0.49-713.791-0.29-23.905 0.04-40.577 16.09-40.735 37.755-0.158 21.775 16.25 37.745 40.377 37.86 63.281 0.315 485.299 0.105 548.589 0.085zM662.958 91.039c0 19.681-15.949 35.63-35.63 35.63-10.511 0-19.87-4.639-26.388-11.879l-0.103 0.082-44.759-49.74V233.554c0 19.681-15.949 35.625-35.63 35.625-19.681 0-35.625-15.944-35.625-35.625v-168.422l-44.764 49.74-0.092-0.082c-6.528 7.24-15.888 11.879-26.394 11.879-19.681 0-35.625-15.949-35.625-35.63 0-9.16 3.559-17.429 9.232-23.752l-0.098-0.082 106.88-118.758 0.092 0.082c6.528-7.23 15.888-11.869 26.4-11.869s19.85 4.64 26.398 11.869l0.092-0.082 106.88 118.758-0.092 0.082c5.678 6.323 9.226 14.592 9.226 23.752z"/></svg>