<?xml version="1.0" standalone="no"?><!DOCTYPE svg PUBLIC "-//W3C//DTD SVG 1.1//EN"
        "http://www.w3.org/Graphics/SVG/1.1/DTD/svg11.dtd"><svg viewBox="0 0 1024 1024" version="1.1" xmlns="http://www.w3.org/2000/svg" xmlns:xlink="http://www.w3.org/1999/xlink"><path transform="scale(1, -1) translate(0, -1024)" d="M219.414528 585.097216l0-329.121792q0-7.428096-5.428224-12.85632t-12.85632-5.428224q-7.999488 0-13.142016 5.142528l-164.560896 164.560896q-5.142528 5.142528-5.142528 13.142016t5.142528 13.142016l164.560896 164.560896q5.142528 5.142528 13.142016 5.142528 7.428096 0 12.85632-5.428224t5.428224-12.85632z m804.519936-438.829056l0-109.707264q0-7.428096-5.428224-12.85632t-12.85632-5.428224l-987.365376 0q-7.428096 0-12.85632 5.428224t-5.428224 12.85632l0 109.707264q0 7.428096 5.428224 12.85632t12.85632 5.428224l987.365376 0q7.428096 0 12.85632-5.428224t5.428224-12.85632z m0 219.414528l0-109.707264q0-7.428096-5.428224-12.85632t-12.85632-5.428224l-621.674496 0q-7.428096 0-12.85632 5.428224t-5.428224 12.85632l0 109.707264q0 7.428096 5.428224 12.85632t12.85632 5.428224l621.674496 0q7.428096 0 12.85632-5.428224t5.428224-12.85632z m0 219.414528l0-109.707264q0-7.428096-5.428224-12.85632t-12.85632-5.428224l-621.674496 0q-7.428096 0-12.85632 5.428224t-5.428224 12.85632l0 109.707264q0 7.428096 5.428224 12.85632t12.85632 5.428224l621.674496 0q7.428096 0 12.85632-5.428224t5.428224-12.85632z m0 219.414528l0-109.707264q0-7.428096-5.428224-12.85632t-12.85632-5.428224l-987.365376 0q-7.428096 0-12.85632 5.428224t-5.428224 12.85632l0 109.707264q0 7.428096 5.428224 12.85632t12.85632 5.428224l987.365376 0q7.428096 0 12.85632-5.428224t5.428224-12.85632z"/></svg>