<?xml version="1.0" standalone="no"?><!DOCTYPE svg PUBLIC "-//W3C//DTD SVG 1.1//EN"
        "http://www.w3.org/Graphics/SVG/1.1/DTD/svg11.dtd"><svg viewBox="0 0 1024 1024" version="1.1" xmlns="http://www.w3.org/2000/svg" xmlns:xlink="http://www.w3.org/1999/xlink"><path fill="#1890FF" transform="scale(1, -1) translate(0, -1024)" d="M793.575644 844.804428H358.413285C245.475854 844.804428 153.630999 752.959573 153.630999 640.022142s91.844855-204.782286 204.782286-204.782286h51.195572v-230.380072a25.597786 25.597786 0 0 1 51.195571 0V793.608857h153.586715v-588.749073a25.597786 25.597786 0 0 1 51.195572 0V793.608857h127.988929a25.597786 25.597786 0 0 1 0 51.195571zM409.608857 486.435427H358.413285C273.73581 486.435427 204.826571 555.344667 204.826571 640.022142s68.909239 153.586715 153.586714 153.586715h51.195572v-307.17343zM742.380072 25.675283H266.619625l58.670125 58.670125a25.597786 25.597786 0 0 1-36.195269 36.195269l-102.391143-102.391143a25.597786 25.597786 0 0 1 0-36.195269l102.391143-102.391143a25.495395 25.495395 0 0 1 36.246465 0 25.597786 25.597786 0 0 1 0 36.195269l-58.670125 58.670125h475.760447a25.597786 25.597786 0 0 1 0 51.195572z"/></svg>
