<?xml version="1.0" standalone="no"?><!DOCTYPE svg PUBLIC "-//W3C//DTD SVG 1.1//EN"
        "http://www.w3.org/Graphics/SVG/1.1/DTD/svg11.dtd"><svg viewBox="0 0 1024 1024" version="1.1" xmlns="http://www.w3.org/2000/svg" xmlns:xlink="http://www.w3.org/1999/xlink"><path fill="#1890FF" transform="scale(1, -1) translate(0, -1024)" d="M128 725.333333h85.333333v-256h170.666667V725.333333h85.333333v-597.333333H384v256H213.333333v-256H128V725.333333m768-597.333333h-256a85.333333 85.333333 0 0 0-85.333333 85.333333c0 22.613333 8.533333 42.666667 23.04 58.026667l207.786666 223.146667c15.786667 15.36 25.173333 36.693333 25.173334 60.16a85.333333 85.333333 0 0 1-85.333334 85.333333 85.333333 85.333333 0 0 1-85.333333-85.333333h-85.333333a170.666667 170.666667 0 0 0 170.666666 170.666666 170.666667 170.666667 0 0 0 170.666667-170.666666c0-46.933333-19.2-89.6-49.92-120.746667L640 213.33333300000004h256v-85.333333z"/></svg>
