<?xml version="1.0" standalone="no"?><!DOCTYPE svg PUBLIC "-//W3C//DTD SVG 1.1//EN"
        "http://www.w3.org/Graphics/SVG/1.1/DTD/svg11.dtd"><svg viewBox="0 0 1024 1024" version="1.1" xmlns="http://www.w3.org/2000/svg" xmlns:xlink="http://www.w3.org/1999/xlink"><path fill="#1890FF" transform="scale(1, -1) translate(0, -1024)" d="M903.611733 30.1056c-0.170667 0.6144-0.136533 1.297067-0.375466 1.911467a16.4864 16.4864 0 0 1-3.925334 5.802666l-102.1952 102.1952a17.066667 17.066667 0 0 1-24.132266-24.132266L846.199467 42.666667H177.493333l72.6016 73.284266a17.066667 17.066667 0 0 1-24.2688 24.064l-101.341866-102.331733-0.034134-0.034133c-0.273067-0.273067-0.375467-0.648533-0.6144-0.955734a16.827733 16.827733 0 0 1-3.003733-4.573866 15.906133 15.906133 0 0 1-1.058133-5.3248c-0.1024-0.443733-0.3072-0.785067-0.3072-1.194667s0.2048-0.750933 0.238933-1.160533a17.783467 17.783467 0 0 1 1.058133-5.3248c0.7168-1.706667 1.809067-3.208533 3.003734-4.573867 0.238933-0.3072 0.341333-0.682667 0.6144-0.955733l0.034133-0.034134 101.341867-102.331733a17.1008 17.1008 0 0 1 24.337066 23.9616L177.425067 8.533333h668.842666l-73.284266-73.284266a17.066667 17.066667 0 0 1 24.132266-24.1664l102.4 102.4c0.477867 0.477867 0.648533 1.092267 1.058134 1.570133 0.989867 1.2288 2.013867 2.491733 2.628266 3.9936 0.6144 1.467733 0.750933 3.037867 0.9216 4.573867 0.068267 0.682667 0.4096 1.262933 0.4096 1.979733 0 1.604267-0.512 3.037867-0.9216 4.5056zM204.8 759.466667a17.066667 17.066667 0 0 1 17.066667 17.066666V827.733333h273.066666v-716.8H443.733333a17.066667 17.066667 0 0 1 0-34.133333h136.533334a17.066667 17.066667 0 0 1 0 34.133333h-51.2V827.733333h273.066666v-51.2a17.066667 17.066667 0 0 1 34.133334 0v68.266667A17.066667 17.066667 0 0 1 819.2 861.866667H204.8a17.066667 17.066667 0 0 1-17.066667-17.066667v-68.266667A17.066667 17.066667 0 0 1 204.8 759.466667z"/></svg>
