<?xml version="1.0" standalone="no"?><!DOCTYPE svg PUBLIC "-//W3C//DTD SVG 1.1//EN"
        "http://www.w3.org/Graphics/SVG/1.1/DTD/svg11.dtd"><svg viewBox="0 0 1024 1024" version="1.1" xmlns="http://www.w3.org/2000/svg" xmlns:xlink="http://www.w3.org/1999/xlink"><path fill="#1890FF" transform="scale(1, -1) translate(0, -1024)" d="M857.140907 737.227662h-85.538134v48.513138c0 9.871929-8.001422 17.873351-17.87392 17.873351h-129.318115C613.378844 855.851236 566.897778 894.68928 512.001707 894.68928c-54.897209 0-101.377138-38.838044-112.4096-91.07456H270.273991c-9.871929 0-17.87392-8.001422-17.87392-17.873351v-48.513138H166.859093c-9.871929 0-17.87392-8.001991-17.87392-17.87392v-828.167964c0-9.871929 8.001991-17.87392 17.87392-17.87392h690.281814c9.872498 0 17.874489 8.001991 17.874489 17.87392V719.353742c0 9.871929-8.001991 17.87392-17.874489 17.87392zM288.14848 767.86688h127.021511c9.453227 0 17.268053 7.358578 17.841493 16.791893 2.523591 41.653476 37.218987 74.282098 78.990223 74.282098 41.770667 0 76.466062-32.628622 78.989653-74.282098 0.574009-9.433316 8.388836-16.791893 17.842062-16.791893h127.021511V658.921244H288.14848V767.86688z m551.118507-858.806613H184.734151V701.479822h67.66592v-60.432498c0-9.872498 8.001991-17.87392 17.87392-17.87392h483.454862c9.872498 0 17.87392 8.001991 17.87392 17.87392V701.479822h67.664214v-792.419555zM377.53344 506.869191L303.99488 433.327787l-32.883484 32.885191c-6.981404 6.977422-18.297742 6.977422-25.279716 0-6.979698-6.981404-6.979698-18.297742 0-25.279716l45.523058-45.523626c3.490702-3.488427 8.064569-5.234347 12.640142-5.234347 4.575573 0 9.14944 1.74592 12.640142 5.234347l86.178702 86.178702c6.979698 6.981973 6.979698 18.298311 0 25.280284-6.981404 6.977422-18.297742 6.977422-25.280284 0.000569zM469.331058 469.013049c-9.872498 0-17.87392-8.001991-17.87392-17.87392 0-9.872498 8.001991-17.87392 17.87392-17.87392h296.200533c9.872498 0 17.87392 8.001991 17.87392 17.87392s-8.001422 17.87392-17.87392 17.87392H469.331058zM377.53344 304.398222l-73.53856-73.541404-32.883484 32.88576c-6.981404 6.977422-18.297742 6.977422-25.279716 0-6.979698-6.981404-6.979698-18.297742 0-25.280285l45.523058-45.523057c3.490702-3.488996 8.064569-5.233778 12.640142-5.233778 4.575573 0 9.14944 1.744782 12.640142 5.233778l86.178702 86.178702c6.979698 6.981404 6.979698 18.297173 0 25.280284-6.981404 6.977422-18.297742 6.977422-25.280284 0zM765.531591 266.543218H469.331058c-9.872498 0-17.87392-8.001991-17.87392-17.874489s8.001991-17.874489 17.87392-17.874489h296.200533c9.872498 0 17.87392 8.001991 17.87392 17.874489s-8.001422 17.874489-17.87392 17.874489zM377.53344 101.927822l-73.53856-73.541404-32.883484 32.886329c-6.981404 6.976853-18.297742 6.976853-25.279716 0-6.979698-6.982542-6.979698-18.29888 0-25.280854l45.523058-45.523057c3.490702-3.488427 8.064569-5.233209 12.640142-5.233209 4.575573 0 9.14944 1.744782 12.640142 5.233209l86.178702 86.178702c6.979698 6.982542 6.979698 18.29888 0 25.280284-6.981404 6.976853-18.297742 6.976853-25.280284 0zM765.531591 64.072249H469.331058c-9.872498 0-17.87392-8.001991-17.87392-17.874489s8.001991-17.873351 17.87392-17.873351h296.200533c9.872498 0 17.87392 8.000853 17.87392 17.873351s-8.001422 17.874489-17.87392 17.874489z"/></svg>
