<?xml version="1.0" standalone="no"?><!DOCTYPE svg PUBLIC "-//W3C//DTD SVG 1.1//EN"
        "http://www.w3.org/Graphics/SVG/1.1/DTD/svg11.dtd"><svg viewBox="0 0 1024 1024" version="1.1" xmlns="http://www.w3.org/2000/svg" xmlns:xlink="http://www.w3.org/1999/xlink"><path fill="#1890FF" transform="scale(1, -1) translate(0, -1024)" d="M288 736h640v-96H288zM288 432h640v-96H288zM288 128h640v-96H288zM160 688m-64 0a64 64 0 1 1 128 0 64 64 0 1 1-128 0ZM160 384m-64 0a64 64 0 1 1 128 0 64 64 0 1 1-128 0ZM160 80m-64 0a64 64 0 1 1 128 0 64 64 0 1 1-128 0Z"/></svg>
