<?xml version="1.0" standalone="no"?><!DOCTYPE svg PUBLIC "-//W3C//DTD SVG 1.1//EN"
        "http://www.w3.org/Graphics/SVG/1.1/DTD/svg11.dtd"><svg viewBox="0 0 1024 1024" version="1.1" xmlns="http://www.w3.org/2000/svg" xmlns:xlink="http://www.w3.org/1999/xlink"><path fill="#1890FF" transform="scale(1, -1) translate(0, -1024)" d="M436.111207 576 640.294554 576C674.837478 576 704 604.653776 704 640 704 675.592652 675.478099 704 640.294554 704L127.705444 704C93.162522 704 64 675.346224 64 640 64 604.407348 92.521899 576 127.705444 576L313.085216 576C312.516408 573.635107 312.042742 571.215096 311.669906 568.744746L267.010995 272.84245C261.011905 233.09351 284.218461 194.072346 319.027696 186.901466 354.079615 179.680595 386.985183 206.581389 393.066387 246.874406L437.725298 542.776705C439.442417 554.154036 438.766789 565.471743 436.111207 576ZM64 64C64 99.346221 92.994324 128 127.809929 128L512.190071 128C547.431322 128 576 99.592653 576 64 576 28.653779 547.005676 0 512.190071 0L127.809929 0C92.568678 0 64 28.407347 64 64ZM768 278.946139 680.924755 366.021387C657.275674 389.670468 618.117235 389.901791 594.107722 365.892278 569.930819 341.715375 570.040404 303.013456 593.978613 279.075248L681.053862 192 593.978613 104.924755C570.329532 81.275674 570.098209 42.117235 594.107722 18.107725 618.284625-6.069184 656.986541-5.959597 680.924755 17.978611L768 105.053862 855.075245 17.978611C878.724326-5.67047 917.882765-5.901792 941.892275 18.107725 966.069184 42.284627 965.959597 80.986541 942.021389 104.924755L854.946138 192 942.021389 279.075248C965.67047 302.72433 965.901792 341.882765 941.892275 365.892278 917.715373 390.069181 879.013459 389.959596 855.075245 366.021387L768 278.946139 768 278.946139Z"/></svg>
